<svg xmlns="http://www.w3.org/2000/svg" viewBox="0 0 512 512" width="512" height="512">
  <defs>
    <radialGradient id="bg-icon-512" cx="50%" cy="50%" r="50%">
      <stop offset="0%" stop-color="#1a1a2e" stop-opacity="0.95"/>
      <stop offset="70%" stop-color="#141428" stop-opacity="0.7"/>
      <stop offset="100%" stop-color="#0d0d1a" stop-opacity="0.2"/>
    </radialGradient>
    <linearGradient id="gold-icon-512" x1="0%" y1="0%" x2="100%" y2="100%">
      <stop offset="0%" stop-color="#d4af37"/>
      <stop offset="50%" stop-color="#f4e4ba"/>
      <stop offset="100%" stop-color="#d4af37"/>
    </linearGradient>
    <filter id="glass-blur-512">
      <feGaussianBlur in="SourceGraphic" stdDeviation="4"/>
    </filter>
  </defs>
  
  <!-- Fundo de vidro -->
  <rect width="512" height="512" fill="url(#bg-icon-512)" rx="86"/>
  
  <!-- Três círculos concêntricos (3 Atos) -->
  <circle cx="256" cy="256" r="186" fill="none" stroke="url(#gold-icon-512)" stroke-width="2" opacity="0.4"/>
  <circle cx="256" cy="256" r="133" fill="none" stroke="url(#gold-icon-512)" stroke-width="2" opacity="0.6"/>
  <circle cx="256" cy="256" r="80" fill="none" stroke="url(#gold-icon-512)" stroke-width="2" opacity="0.8"/>
  
  <!-- 21 pontos distribuídos uniformemente -->
  <g fill="#d4af37" opacity="0.9">
    <circle cx="256.0" cy="176.0" r="5"/>
    <circle cx="318.5" cy="206.1" r="5"/>
    <circle cx="334.0" cy="273.8" r="5"/>
    <circle cx="290.7" cy="328.1" r="5"/>
    <circle cx="221.3" cy="328.1" r="5"/>
    <circle cx="178.0" cy="273.8" r="5"/>
    <circle cx="193.5" cy="206.1" r="5"/>
  </g>
  <g fill="#d4af37" opacity="0.7">
    <circle cx="256.0" cy="123.0" r="5"/>
    <circle cx="360.0" cy="173.1" r="5"/>
    <circle cx="385.7" cy="285.6" r="5"/>
    <circle cx="313.7" cy="375.8" r="5"/>
    <circle cx="198.3" cy="375.8" r="5"/>
    <circle cx="126.3" cy="285.6" r="5"/>
    <circle cx="152.0" cy="173.1" r="5"/>
  </g>
  <g fill="#d4af37" opacity="0.5">
    <circle cx="256.0" cy="70.0" r="5"/>
    <circle cx="401.4" cy="140.0" r="5"/>
    <circle cx="437.3" cy="297.4" r="5"/>
    <circle cx="336.7" cy="423.6" r="5"/>
    <circle cx="175.3" cy="423.6" r="5"/>
    <circle cx="74.7" cy="297.4" r="5"/>
    <circle cx="110.6" cy="140.0" r="5"/>
  </g>
  
  <!-- O 22º - centro luminoso -->
  <circle cx="256" cy="256" r="32" fill="#fff9e6" opacity="0.3"/>
  <circle cx="256" cy="256" r="16" fill="#fffef5" opacity="0.8"/>
</svg>
